<svg xmlns="http://www.w3.org/2000/svg" fill="none" viewBox="0 0 200 200"><path fill="#fff" fill-rule="evenodd" d="M126.94 99.72H90.678c-6.23 0-7.167 7.649-.49 7.742 6.677.093 35.716.326 36.752.326.646 0 .405-8.068 0-8.068ZM161.215 80.659a6.73 6.73 0 0 0-6.173-6.678c-3.8-.355-86.731-.156-91.117 0-4.386.156-6.445 3.13-6.628 5.784-.129 1.866-.277 7.032.532 7.032 2.42 0 101.967.252 103.145.27.694.01.241-5.704.241-6.408ZM141.431 83.5c-3.96 0-4.322-6.18-.22-6.18a3.098 3.098 0 0 1 3.217 4.218 3.103 3.103 0 0 1-2.997 1.962Zm10.517 0a3.101 3.101 0 1 1-.227-6.18c4.079-.003 4.435 6.18.227 6.18Z" clip-rule="evenodd"/><path fill="#fff" fill-rule="evenodd" d="M160.889 109.818c.658-6.842.714-13.728.17-20.58-.069-.873-1.418-.709-1.348.164.458 5.676.6 17.414-.532 23.2-1.132 5.786-5.28 5.046-9.857 5.1l-78.57.922c-14.041.164-12.259-.7-12.426-29.137 0-.625-1.063-.639-1.1 0-.221 3.882-.389 19.763.248 23.73 1.286 8 9.3 6.77 15.818 6.7l73.667-.845c8.452-.093 12.925 1.207 13.93-9.254Z" clip-rule="evenodd"/><path fill="#fff" fill-rule="evenodd" d="M129.36 99.819a.522.522 0 0 0-.36.167.522.522 0 0 0 .03.733.52.52 0 0 0 .373.136c6.89.369 13.866-.075 20.707.319 2.434.141 3.587 1.186 3.7 2.292.324 3.28-5.273 2.906-7.2 2.956h-16.96c-.859 0-.8 1.409.057 1.4 5.875-.048 11.746-.123 17.613-.149 2.8-.013 7.98-.1 7.706-4.2-.222-3.335-4.165-3.526-6.642-3.548-6.01-.053-13.304-.337-19.024-.106ZM73.235 94.27c-.156-.462-.824-.327-.979.049-.308.751-.383 6.628-.419 7.721-.9-.71-1.791-1.415-2.7-2.086-.171-.127-1.619-.127.071 1.54a17.609 17.609 0 0 0 3.278 2.554c.589.149 2.9-2.48 3.421-2.966 1.263-1.179.2-1.618-.185-1.54a14.144 14.144 0 0 0-2.491 2.129c0-1.355.355-6.387 0-7.437l.004.036Z" clip-rule="evenodd"/><path fill="#fff" fill-rule="evenodd" d="M65.238 108.263c-.8-.033-.77-2.6-.816-3.243-.153-2.129 1.142-1.078 1.142-1.078.369.4.341 2.682.327 3.172a81.077 81.077 0 0 1 13.575.128c-.121-1.42-.525-3.35.482-3.421 1.007-.071.817 1.348.831 2.512.013 1.05.255 2.354-.447 2.342-5.102-.087-10.056-.204-15.094-.412ZM99.116 55.162c-.291-.42-2.584-3.4-3.243-3.335-1.832.167-10.311 2.874-9.431 4.144 1.312 5.265 3.639 14.768 4.066 15.93.177.484.916.235.844-.254-.509-3.458-2.76-11.617-3.889-15.761a41.144 41.144 0 0 1 8.424-2.9c.844.937 1.675 1.859 2.512 2.839 1.306.972 25.4-6.387 27.832-7.04 4.6 14.739 4.674 17.632 6.571 21.616.24.5.894.113.83-.348-1.739-5.947-4.122-16.876-6.656-22.1-.476-.992-27.86 7.336-27.86 7.209Z" clip-rule="evenodd"/><path fill="#fff" fill-rule="evenodd" d="M106.73 30.445c2.515 2.225 11.165 12.972 12.887 15.946.268.462-.468.822-.759.447-3.538-4.55-5.472-7.891-12.376-15.477-9.651 6.614-18.337 15.158-19.728 14.661-1.391-.497-3.222-.823-4.535-1.235a47.653 47.653 0 0 0-5.875 5.769c.958 1 8.337 9.471 9.04 10.709.288.505-.394 1.126-.766.66-5.87-7.364-9.888-10.825-9.318-11.78.9-1.507 4.847-5.386 6.3-6.032.206-.944 4.492.71 5.18.993.002-.1 18.99-15.506 19.95-14.661Z" clip-rule="evenodd"/><path fill="#fff" fill-rule="evenodd" d="M67.977 50.627c.128-1.1 1.724-8.693 2.434-8.969l4.017-1.214c.709-1.923 7.181-19.123 7.805-19 2.519.481 18.3 6.91 19.657 7.934.405.3.127.982-.347.809-6.051-2.2-13.114-5.734-18.99-7.657-.192 1.015-7.153 18.535-7.3 18.684-.71.71-3.265.987-4.35 1.271-.071 1.227-1.491 6.174-1.895 7.692l3.406.873c.518.234.447 1.121-.191 1.05.413 0-4.323-.81-4.246-1.473ZM47.114 45.887c-.71.234-2.957 2.959-2.839 3.633a36.213 36.213 0 0 0 2.42 8.218c.333.762 15.86-4.144 17.684-4.655a.534.534 0 1 0-.191-1.051 130.238 130.238 0 0 0-16.705 4.7 61.13 61.13 0 0 1-2.193-7.146c.461-.59 2.91-3.2 2.839-3.676a3485.48 3485.48 0 0 0-4.372-20.075c6.387-1.093 13.043-2.7 19.48-3.946.347 3.208 2.717 12.589 4.257 19 .084.348.706.107.71-.234.028-2.13-3.661-16.48-4.414-19.486-.281-1.122-19.159 3.3-20.735 3.81-1.312.429 3.434 18.45 4.038 20.927l.021-.02ZM41.884 64.607c-6.258-4.519-16.856-11.926-23.695-15.172-1.416-.672-9.147 14.838-9.424 17.514 0 1.518 13.072 8.4 15.96 9.544.05 1.491.092 2.981.142 4.471.3.71 3.164 2.131 3.988 2.349 3.461.916 4.776 1.256 5.1.291 3.453-10.459 8.106-18.869 7.929-18.997Zm-8.792 18.536a21.725 21.725 0 0 1-7.224-2.484c.085-.639.106-4.734-.646-5.124-5.478-2.84-10.155-5.414-15.506-8.65 2.754-7.153 4.968-10.105 8.558-16.236 7.757 4.712 15.045 8.927 22.5 14.341-1.863 3.31-6.781 14.61-7.682 18.153ZM31.431 94.206c-8.792-.279-18.287-.57-27.087-.362-1.781.042 1.212 17.611 1.817 19.422.265.794 14.086.483 16.953.05A7.296 7.296 0 0 0 25 116.14c.511.391 8.771.4 8.941-.674-1.841-12.39-1.424-21.226-2.51-21.26Zm-5.72 21c-.347-.469-1.958-2.966-2.391-2.988-5.45.163-10.836.213-16.279.305a120.203 120.203 0 0 1-2.278-17.74l26 .4c.5 6.387 1.086 13.242 1.966 19.543l-7.018.48ZM47.98 137.507c-4.6-5.34-11.43-14.527-12-14.27a204.192 204.192 0 0 0-22.623 11.673c-1.9 1.159 7.567 13.835 9.544 15.612 1.275 1.145 12.327-6.834 14.285-8.04 1.07.918 2.32 1.602 3.669 2.008.62.179 7.835-6.158 7.125-6.983ZM41 143.284c-2.328-.781-3.674-2.248-4.258-1.874-4.389 2.813-8.466 5.585-13.575 8.445a83.103 83.103 0 0 1-9.079-14.455c7.273-4.258 14.441-7.324 21.87-10.865 1.555 2.25 8.8 11.475 10.943 13.228A177.177 177.177 0 0 1 41 143.284ZM78.721 156.511c-1.763-1.337-15.2-6.65-18.656-7.373-1.008-.211-13.61 21.634-12.866 22.226a51.71 51.71 0 0 0 17.429 8.381c1.42.363 7.9-14.158 8.756-16.01.895 0 2-.22 2.9-.227.94-.213 3.188-6.427 2.437-6.997Zm-2.7 6.1c-.78.05-3.348-.12-3.583.383C70 168.2 67.4 173.344 64.855 178.5c-7.1-2.129-10.361-3.79-16.641-7.586 0 0 8.515-15.96 12.064-20.721 3.675 1.256 14.419 5.677 17.655 6.918-.646 1.834-1.291 3.658-1.909 5.496l-.003.004ZM122.746 167.106c-.262-1.93-.518-4.662-.78-6.585-.476-1.171-8.069.11-18.181.106-1.178 0 .632 22.226.752 24.568 1.576 1.6 16.457.816 16.442-1.115l-1.3-14.483c1.321-.88 2.599-1.583 3.067-2.491Zm-4.023 2.356 1.093 14.391a64.8 64.8 0 0 1-14.42.894c-.128-7.557-1.093-15.228-.838-23.141 5.458-.042 10.829-.163 16.45-.553.106.717.809 5.748.553 6.018 0 .229-1.993 1.013-2.838 2.391ZM157.767 151.4c.709-1.284 1.068-1.859 1.029-2.377-.047-.624-3.776-5.848-4.35-5.528-2.555 1.419-8.665 7.359-10.2 9.473-.057 1.334 8.714 16.542 9.75 16.889.5 1.86 9.564-7.515 9.524-8.068-.056-.689-5.136-9.301-5.753-10.389Zm-3.236 17.542a124.971 124.971 0 0 1-9.226-15.867c3.187-3.045 5.805-5.45 9.162-8.26l3.151 4.392-.845 2c-.213.511 4.968 8.757 5.784 10.482a41.705 41.705 0 0 1-8.026 7.255v-.002ZM187.663 129.623c-.864-.91-7.018-3.888-8.153-4.293.085-.454.369-2.6.113-2.838a35.169 35.169 0 0 0-4.754-2.271c-.823 0-6.12 11.109-5.677 11.482 1.6 1.346 12.275 8.335 14.27 9.1.648.244 4.692-10.663 4.201-11.18Zm-4.406 9.722c-1.093-.709-12.057-7.77-13.022-8.1.1-.092 4.258-8.742 4.918-9.934a17.423 17.423 0 0 0 3.548 1.83 9.43 9.43 0 0 0-.05 2.583c0 .291 6.649 3.69 7.934 4.18-1.114 3.133-2.229 6.319-3.328 9.441ZM192.751 100.529c0-.71-5.208-2.129-6-2.413a6.536 6.536 0 0 0-.277-1.874c-.277-.56-4.534-2.129-4.889-1.916-.83.44-2.614 9.549-1.845 9.971 1.309.717 10.272 4.557 11.538 4.257.716-.168 1.594-7.805 1.473-8.025Zm-1.958 6.819c-3.456-1.192-6.891-2.576-10.318-3.733l1.554-8.217 3.548 1.362c.064.447.17 1.98.575 2.129l5.528 2.023c-.328 1.96-.887 6.074-.887 6.436ZM191.531 71.136c-.268-.265-5.989-.1-7.331-.142l-1.809-1.689c-.646 0-3.924-.156-4.223.234-.299.39 1.867 8.521 2.349 9.183.245.336 11.915.333 12.114 0a37.159 37.159 0 0 0-1.1-7.586Zm-10.368 6.684c-.681-2.533-1.353-5.055-2.015-7.564.887 0 2.129.135 2.98.056a8.78 8.78 0 0 0 1.654 1.569c2.31.19 4.63.244 6.947.163.229 2.01.604 4 1.121 5.956-3.477-.009-7.203-.18-10.687-.18ZM176.806 38.081c-.388-.385-6.344 2.072-7.1 2.342a9.096 9.096 0 0 0-1.881-1.207c-.4 0-4.749 1.69-4.329 2.463 1.1 2.017 4.208 6.912 6.068 8.423.6.49 10.075-3.549 10.744-4.165.783-.719-2.829-7.188-3.502-7.856ZM170 49.215c-1.973-2.441-3.549-4.967-5.415-7.515l3.087-1.355c.334.206 1.661 1.163 1.966 1.085a39.097 39.097 0 0 0 6.72-2.391c.951 2.072 2.129 4.144 3.051 6.216-1.409.708-9.409 3.86-9.409 3.96ZM1.03 61.776c-.185.5.554.908.774.39C7.064 49.776 13.317 41.618 22.71 32.4c.333-.327-.156-.93-.533-.632 0-.535-14.392 11.644-21.147 30.008ZM83.22 70.227c-1.988-2.085-5.139-5.152-7.614-6.543-.463-.259-.846.42-.49.76 2.4 2.286 4.975 4.073 7.437 6.557.463.467 1.114-.301.667-.774ZM104.778 22.469c-3.959-4.4-12.845-7.8-17.74-8.515a.484.484 0 1 0-.142.958c8.87 1.439 12.287 4.569 17.322 8.231.4.29.809-.39.532-.709l.028.035ZM41.806 54.523c-1.242-.042-3.018 2.649-3.435 3.548-.224.484.589.866.852.405 1.02-1.79 2.838-2.966 2.994-3.343a.453.453 0 0 0-.411-.6v-.01ZM37.491 33.724c-5.241 1.305-10.791 7.005-13.4 11.631-.312.553.583.93.9.39a27.057 27.057 0 0 1 12.827-11.212c.404-.17.106-.917-.327-.809ZM34.149 44.617c.419-.12.71.5.4.71a13.592 13.592 0 0 0-5.249 5.861c-.272.566-1.1.063-.844-.5.9-2.018 3.385-5.407 5.677-6.08l.016.01ZM19 77.16c-2.122 2.44-3.26 7.508-3.278 10.652 0 .539.909.6.951.057.373-4.783 1.58-7.708 3.221-10.105.339-.497-.483-1.078-.894-.604ZM12.583 77.82c-1.731 2.413-2.519 8.842-2.512 11.816a.5.5 0 0 0 .987 0 33.13 33.13 0 0 1 2.4-11.447c.2-.5-.539-.85-.873-.39l-.002.021ZM27.585 165.105c-9.807-6.976-14.839-14.633-19.543-25.3a.424.424 0 0 0-.779-.022.42.42 0 0 0-.009.322c3.009 9.934 11.214 19.75 19.763 25.688.469.326 1.043-.355.568-.709v.021ZM190.09 112.472a.413.413 0 0 0-.816 0c-.367 2.6-.279 3.927-1.632 6.337-.252.449.538.9.8.454 1.012-1.77 2.124-4.741 1.648-6.791ZM184.733 111.535c-.66 1.171-2.3 7.36-2.683 8.721-.161.568.708.709.88.171.43-1.35 2.491-7.3 2.59-8.63a.414.414 0 0 0-.049-.292.414.414 0 0 0-.524-.174.417.417 0 0 0-.214.204ZM162.244 151.679a.457.457 0 0 0-.019.574.452.452 0 0 0 .559.135c2.462-1.689 6.876-6.01 7.763-9 .135-.454-.475-.908-.71-.447-.349.142-1.957 4.583-7.593 8.738ZM166.694 138.983c-.476 1.9-3.8 4.893-5.3 5.912-.469.318-.875-.4-.447-.71 3.438-2.463 4-4.549 5.031-5.578.059-.239.816-.175.716.376ZM136.066 175a.47.47 0 0 0-.087.855.47.47 0 0 0 .35.045c2.194-.646 8.423-2.973 10.14-4.719.3-.3-.057-.915-.44-.709-.254-.13-5.2 3.082-9.963 4.528ZM132.475 169.675c-3.156 1.267-4.172 2.526-8.111 2.4a.458.458 0 0 0-.422.425.455.455 0 0 0 .365.475 13.072 13.072 0 0 0 6.792-1.349c3.04-1.534 1.817-2.126 1.376-1.951ZM139.572 158.768a38.947 38.947 0 0 1-13.114 2.789c-.532.013-.469.83.064.823 3.5-.048 10.3-1.021 13.419-2.839.434-.253.042-.88-.369-.709v-.064ZM97.987 165.637c-4.544-.262-6.165.273-10.914-1.355-.539-.185-.766.652-.234.851 3.18 1.19 7.9 2.129 11.241 1.278a.401.401 0 0 0 .145-.661.405.405 0 0 0-.238-.113ZM95.809 174.727c-6.331-.316-9.988-.179-16.194-2.59-.532-.206-.951.581-.412.8 4.666 1.914 11.742 3.533 16.755 2.612.51-.092.291-.8-.149-.822ZM40.06 160.01c-4.235-1.944-6.861-2.927-9.722-6.9-.362-.5-1.115.065-.766.568 2.188 3.161 6.328 6.714 10.268 7.139a.429.429 0 0 0 .443-.313.426.426 0 0 0-.223-.494ZM49.016 154.893c.064 0 1.3 1.767-3.094-.135a27.779 27.779 0 0 1-7.459-4.782c-.446-.4.243-1.011.71-.625 3.612 2.983 6 3.548 9.878 5.542h-.035ZM53.841 148.634c-1.511-1.149-3.079-2.244-4.62-3.356-.482-.348-.949.452-.468.8 1.524 1.086 3.016 2.207 4.549 3.257.4.277.951-.383.539-.71v.009ZM15.28 126.572a13.083 13.083 0 0 1-1.852-8.665c.059-.467-.641-.547-.8-.113-1.029 2.769.311 6.851 1.845 9.225.318.496 1.127.062.807-.447ZM24.115 124.975a22.423 22.423 0 0 1-2.775-6.275c-.124-.467-.71 0-.752.405-.05 1.149 2.126 5.68 2.711 6.3.409.438 1.163.003.816-.43ZM197.832 81.056a77.268 77.268 0 0 1-2.441 23.808.425.425 0 0 0 .301.515.427.427 0 0 0 .522-.288c1.839-6.584 3.47-17.215 2.491-24.127 0-.488-.9-.428-.873.092ZM164.515 25.357c-.41-.4-1.133.147-.709.575a69.189 69.189 0 0 1 8.245 10.261c.267.4.951 0 .753-.447.247 0-2.685-4.854-8.289-10.389ZM165.1 34c.28.4-.313.781-.639.5-2.132-1.862-7.54-8.255-9.7-10.743-.333-.384.211-.95.567-.568 2.291 2.45 8.104 8.411 9.772 10.811ZM182.54 52.565a.439.439 0 0 0-.45-.174.434.434 0 0 0-.26.674c3.166 4.9 3.809 8.071 4.769 12.007.119.49.8.291.816-.17.162-3.657-4.554-12.337-4.875-12.337ZM178.069 52.678c-.206-.539-1.081-.3-.88.256.379 1.052 2.21 6.517 2.8 7.337.219.306.813.228.767-.22-.151-1.418-2.092-5.818-2.687-7.373ZM191.169 85.1c-.064-.411-.826-.6-.788-.113a52.943 52.943 0 0 1-.78 10.864c-.1.575.766.568.894 0 .68-3.545.907-7.163.674-10.765v.014ZM77.252 22.292c-2.015-1.369-6.712-.876-8.949-.057-.624.228-.405 1.24.235 1.015 4.5-1.586 6.748-.163 8.473-.135a.446.446 0 0 0 .241-.823ZM139.586 51.365c-.077-.546-.823-.34-.88.114-.642 5.11-.41 10.464-1.171 15.86-.075.533.85.667.937.135.696-4.26 1.697-11.974 1.114-16.109ZM109.235 16.175c-.446-.4-1.1.221-.674.66 9.168 9.43 12.034 16.714 14.9 24.986.19.547 1.253.278 1.1-.284C121.7 31 115.028 21.344 109.235 16.175Z" clip-rule="evenodd"/></svg>