<svg xmlns="http://www.w3.org/2000/svg" fill="none" viewBox="0 0 200 200"><path fill="#fff" d="M186.1 72.933c.88 3.748.521 7.681-1.024 11.208a1.426 1.426 0 0 1-.893.838c0 .768-1.462 8.43-1.96 11.96 1.3 1.3 2.715 5.438 2.232 8.844-1.574 11.122-18.237 12.437-29.495 12.613-.577 2.1-3.274 13.878-4.1 17.8-2.548 12.162-3.812 21.042-4.454 23.864a6.498 6.498 0 0 0-.066 3.91 2.232 2.232 0 0 0 3.1 1.307c1.582-.921 3.154-8.782 3.256-9.3 2.447-12.428 3.914-21.817 5.7-33.3a4.556 4.556 0 0 1-2.244-.273.323.323 0 0 1-.146-.313.318.318 0 0 1 .073-.164.316.316 0 0 1 .149-.1 3.536 3.536 0 0 1 1.525.054c2.793.309 12.633.507 18.168.393 3.865-.08 8.313-1 9.345-4.706.346-1.242 9.727-29.3 9.727-35.453.007-6.402-4.367-10.115-8.893-9.182Zm3.05 20.041c-2.223 8.646-2.466 10.431-3.213 11.644a.214.214 0 0 1-.101.082.205.205 0 0 1-.237-.068.213.213 0 0 1-.043-.123 12.52 12.52 0 0 1 .6-3.355c.247-.949 1.7-6.841 2.222-8.834 1.767-6.716 3.23-10.595 1.209-17.361a.185.185 0 0 1 .105-.222.183.183 0 0 1 .232.08c3.276 5.052.3 13.983-.773 18.157h-.001Z"/><path fill="#fff" d="M183.389 121.282a10.474 10.474 0 0 1-4.03 1.4c1.042 5.576 5.533 29.148 7.319 35.268.885 3.029 1.787 8.073 4.662 6.742 2.733-1.265 1.079-5.185.654-7.287-2.394-11.854-5.074-24.515-8.605-36.123ZM141.945 165.7c-3.546-.264-.134-.06-53.153-.664-.877-9.063-.417-12.217-.9-60.7 13.244-.065 47.25-.258 51-.326a.39.39 0 0 0 .274-.113.39.39 0 0 0 0-.548.39.39 0 0 0-.274-.113c-13.451-.233-47.859-.1-51.606-.109a.624.624 0 0 0-.61.61c0 .149.1 52.993 1.089 61.845a.554.554 0 0 0 .545.545c13.887.071 49.668.667 53.643.446a.433.433 0 0 0 .307-.131.439.439 0 0 0-.315-.742Z"/><path fill="#fff" d="M139.854 104.52c-.066-.338-.58-.251-.589.076-.058 2.342.478 6.028 1.188 22.851.322 7.635 1.033 34 1.263 36.26a.35.35 0 0 0 .104.25.35.35 0 0 0 .5 0 .35.35 0 0 0 .104-.25c.053-1.977-1.024-51.174-2.57-59.187ZM87.8 102.4a49.776 49.776 0 0 0 5.8-3.78c1.906-1.318 13.319-9.206 14.269-9.868 2.036-1.421 1.352-1.144 8.386-1.144a7.544 7.544 0 0 0 1.9-.1.385.385 0 0 0 .269-.365.385.385 0 0 0-.269-.365c-.52-.128-.442-.1-6.862-.1-2.571 0-2.788.5-5.675 2.516-16.488 11.545-16.841 11.681-18.113 12.864-.173.163.078.442.295.342ZM120.292 88.693c.574 1.867.469 1.117 5.206 1.242.37.044.745.03 1.111-.043.7-.212.9-.981 1.154-1.58a33.428 33.428 0 0 0 2.277-8.147.5.5 0 0 0-.468-.621c-1.493 0-3-.011-4.5-.022a66.27 66.27 0 0 0 .36-7.21.44.44 0 0 0-.316-.4.43.43 0 0 0-.523.294 27.1 27.1 0 0 0-.153 3.692 29.056 29.056 0 0 0 .055 3.638h-1.307c-.992-5.457-.753-6.212-1.231-9.607-.041-.294-.489-.206-.5.066a41.427 41.427 0 0 0 .915 9.552c-.2 0-.381 0-.577.011 0-.094-1.015-3.5-1.111-3.823a22.48 22.48 0 0 0-1.22-3.551.228.228 0 0 0-.252-.101.229.229 0 0 0-.173.21 43.153 43.153 0 0 0 1.862 7.276c-.446.011-.893.019-1.328.033a.487.487 0 0 0-.329.82c.087.09.204.143.329.149 3.137.065 6.273 0 9.41-.044a31.634 31.634 0 0 1-2.265 7.941c-.109.25-.173.528-.479.6-.221.051.067-.033-2.157-.033-3.337 0-2.677.462-2.995-.566-.26-.839-2.17-7.054-2.6-8.006-.153-.337-.613-.076-.555.24.137.766 2.132 7.249 2.36 7.99ZM143.6 86.711a22.476 22.476 0 0 0-3.441-.087c-9.417.126-10.069.142-11.143.338-.24.043-.25.454 0 .49 2.376.343 12.151-.076 14.018.1-2.387 10.1-3.8 13.329-3.834 14.693a.287.287 0 0 0 .215.268.285.285 0 0 0 .319-.126c.944-1.417 3.834-12.9 4.313-15.1a.465.465 0 0 0-.248-.524.468.468 0 0 0-.199-.052Z"/><path fill="#fff" d="M104.966 93.617c.228-.219-.056-.56-.326-.425-2.129 1.058-6.049 4.659-7.8 6.274a.426.426 0 0 0 .305.718c1.69.069 15.529.473 18.407.349a.388.388 0 0 0 .261-.653.39.39 0 0 0-.261-.12c-3.049-.2-6.143-.149-9.2-.218-2.723-.062-5.435-.174-8.158-.207 3.147-2.97 5.106-4.111 6.772-5.718Z"/><path fill="#fff" d="M116.468 100.283a30.991 30.991 0 0 0 3.464-3.028 1059.5 1059.5 0 0 0 3.475-3.192.433.433 0 0 0 .087-.467.432.432 0 0 0-.387-.274c-2.354-.2-16.316-1.185-17.994-.609a.27.27 0 0 0-.139.096.27.27 0 0 0 0 .32.27.27 0 0 0 .139.095 7.948 7.948 0 0 0 2.124.131c5.764.088 9.183.338 14.835.752-4.765 4.416-5.053 4.376-6.045 5.609-.239.29.082.807.441.567Z"/><path fill="#fff" d="M109.715 94.314c-.837.573-1.531 1.177-3.311 2.646-.316.261-.664.458-.773.872a.268.268 0 0 0 .134.307.272.272 0 0 0 .116.03c.464-.025.693-.292 2.059-1.426a16.605 16.605 0 0 0 2.124-1.994c.19-.224-.064-.63-.349-.435ZM109.933 97.875c.552-.121.825-.441 2.963-2.6.151-.153-.045-.438-.24-.316-.588.377-1.155.784-1.7 1.22a3.448 3.448 0 0 0-1.307 1.416c-.064.161.121.316.284.28ZM115.706 94.858a29.256 29.256 0 0 0-2.07 1.754c-.5.476-1.425 1.1-1.557 1.808a.226.226 0 0 0 .272.272c.717-.121 1.381-1.015 1.874-1.5.65-.645 1.24-1.308 1.83-1.993a.252.252 0 0 0 .052-.08.248.248 0 0 0-.002-.187.25.25 0 0 0-.134-.13.238.238 0 0 0-.186.002.236.236 0 0 0-.079.054ZM47.968 58.2a.675.675 0 0 0-.152-1.024.584.584 0 0 0-.915.544.61.61 0 0 0 1.067.48ZM57.9 71.56a2.233 2.233 0 0 0-1.383-.359 16.454 16.454 0 0 0-5.109.49c-.262.084-.228.522.066.5 4.71-.339 5.71.189 6.371-.153a.309.309 0 0 0 .055-.478ZM55.4 73.052a6.957 6.957 0 0 0-3.072.512.282.282 0 0 0 .142.523c1.067-.031 2.135-.1 3.191-.131 1.595-.045 1.938.014 2.255-.4a.247.247 0 0 0-.044-.315c-.263-.315-.516-.311-2.472-.189ZM144.069 102.494a10.037 10.037 0 0 1 4.095-2.538c2.857-1.04 9.874-2.99 10.936-3.507a2.843 2.843 0 0 0 1.122-3.649.212.212 0 0 0-.414.054 4.955 4.955 0 0 1-.251 2.3c-.445.775-1.568.905-2.352 1.144-1.863.568-3.717 1.126-5.577 1.688-2.733.826-7.153 1.808-8.038 4.248-.099.266.285.414.479.26ZM165.994 56.551a.5.5 0 0 0-.348-.839.492.492 0 0 0-.453.302.485.485 0 0 0 .047.459.501.501 0 0 0 .502.209.493.493 0 0 0 .252-.131ZM169.36 56.181a.442.442 0 1 0 0 .884.442.442 0 0 0 0-.884ZM167.116 59.928a.33.33 0 0 0 .297-.203.33.33 0 0 0-.068-.353c-.207-.207-.894-.36-.839-.7a5.528 5.528 0 0 0 1.209-3.191.257.257 0 0 0-.5-.066 7.979 7.979 0 0 1-1.5 3c-.459.752.705 1.592 1.401 1.513ZM168.609 59.96c-.907 1.142-2.074 1-2.865 1.318-.195.079-.25.392 0 .447a3.66 3.66 0 0 0 2.843-.763c.08.672-.01 1.354-.262 1.983-.2.458-.569.972-1.078.544a2.847 2.847 0 0 1-.61-.98c-.161-.328-.634-.142-.653.174a2.031 2.031 0 0 0 .893 1.536 1.213 1.213 0 0 0 1.6-.109c1.033-.982.906-2.709.719-4a.345.345 0 0 0-.25-.245.348.348 0 0 0-.337.095ZM158.446 80.3a8.427 8.427 0 0 0 3.192.359.356.356 0 0 0 0-.686 21.214 21.214 0 0 1-2.625-.349c.968-4.2 2.55-10.42 6.785-11.349.295-.065.218-.5-.065-.512-2.461-.08-4.151 2.428-5.141 4.378a31.989 31.989 0 0 0-2.429 7.679.397.397 0 0 0 .283.48Z"/><path fill="#fff" d="M163.184 76.679a.255.255 0 0 0-.5.066c0 1.492-.659 2.853-.882 4.313-.179 1.176-.2 2.952.588 3.932a.319.319 0 0 0 .348.065.32.32 0 0 0 .197-.294c-.084-1.154-.754-1.937-.229-4.248a8.667 8.667 0 0 0 .478-3.834ZM146.639 82.9c.444.438 1.155 1.188 1.787 1.274a.276.276 0 0 0 .336-.248.27.27 0 0 0-.031-.152c-.272-.567-1.045-.938-1.5-1.35-.522-.47-.88-1.071-1.362-1.558-.184-.186-.435.011-.4.24a3.537 3.537 0 0 0 1.17 1.794ZM148.524 82.049c.262.317.565.6.9.839a.18.18 0 0 0 .173-.004.175.175 0 0 0 .063-.063.175.175 0 0 0 .025-.086c0-1.085-1.041-1.077-2.973-3.757-.151-.209-.57-.086-.458.2a8.214 8.214 0 0 0 2.27 2.871ZM149.548 80.47c.456.491 1.219 1.514 1.982 1.449a.3.3 0 0 0 .207-.5c-.247-.287-.63-.45-.915-.719-1.138-1.076-1.891-2.013-2.69-2.865a.237.237 0 0 0-.307-.018.237.237 0 0 0-.064.301 14.176 14.176 0 0 0 1.787 2.352Z"/><path fill="#fff" d="M155.081 84.587c.023.08.072.151.139.202.066.051.147.08.231.081a15.134 15.134 0 0 1 4.869.578c7.751 1.91 10.929 5.068 12.536 5.576.165.052.349-.152.24-.305a5.752 5.752 0 0 0-1.71-1.405c-5.634-3.616-12.467-5.39-15.663-5.217a15.502 15.502 0 0 0-3.79-5.675c-.183-.187-.531.063-.37.283a20.79 20.79 0 0 1 3.518 5.882Z"/><path fill="#fff" d="M160.265 81.134a5.652 5.652 0 0 0 .033 2.244.233.233 0 0 0 .224.162.233.233 0 0 0 .223-.162 9.109 9.109 0 0 0 .032-2.244.256.256 0 0 0-.512 0Z"/><path fill="#fff" d="M186.9 68.358c-.951-.571-1.215-1.766-1.459-2.767-1.164-4.781.06-7.8.512-11.687.484-4.171-.817-10.417-6-10.685a5.343 5.343 0 0 0-4.389 1.971 2.493 2.493 0 0 1 1.427 1.1c.609 1.119.04 1.911-.425 1.753-.29-.1-.194-.443-.763-1.1-4.185-4.832-13.439-.214-10.968 5.675.056.084.117.164.185.239a21.469 21.469 0 0 0-1.383 9.248c.3 2.083 1.34 4.323 3.376 4.368.3.995-.152 1.254.1 1.666.188.309.835.217.785-.882a2.521 2.521 0 0 0-.185-.839 4.499 4.499 0 0 0 1.895-.9 16.032 16.032 0 0 0 2.723-3.017 3.756 3.756 0 0 0 .784 2.7.389.389 0 0 0 .691-.052.38.38 0 0 0-.027-.34 4.035 4.035 0 0 1-.871-2.483.26.26 0 0 0-.024-.117.254.254 0 0 0-.303-.134c.069-.123.13-.25.185-.381 1.047.585 2.405-.479 2.288-2.124a5.767 5.767 0 0 0 3.158-2.135c.186 2.831.625 6.421 2.19 8.768a11.861 11.861 0 0 0-5.969-1.274.448.448 0 0 0-.381.218 7.976 7.976 0 0 1-2.974 3.7 3.3 3.3 0 0 1-4.106-.5c-.262-.283-.753.088-.534.414a3.715 3.715 0 0 0 4.586 1.078 7.829 7.829 0 0 0 3.692-4.008 10.2 10.2 0 0 1 5.479 1.339c3.716 2.483 6.184 8.628 3.322 15.98a41.69 41.69 0 0 0-10.337-.905c.94-2.416 1.313-2.809 1.689-3.942.14-.426-.435-.588-.665-.284a27.844 27.844 0 0 0-2.178 4.6.476.476 0 0 0 .457.6c.36-.012.708-.021 1.068-.032-.294.817-.5 1.679-.85 2.483-.739 1.69-1.238 1.962-1.231 2.626a.224.224 0 0 0 .082.165.219.219 0 0 0 .18.041 1.86 1.86 0 0 0 .893-.98 13.955 13.955 0 0 0 1.634-4.335 44.03 44.03 0 0 1 7.668.632 28.807 28.807 0 0 1-4.531 8.593c-1.5 1.835-3.493 3.721-9.564 2.288-4.986-1.177-8.851-4.312-12.656-7.7-.623-.554-4.1.889-6.568-.315a7.098 7.098 0 0 1-2.026-1.591c-.99-1.056-1.078-1.482-1.656-1.7a.306.306 0 0 0-.381.294c.062.408.258.783.556 1.068a8.9 8.9 0 0 0 3.2 2.777 8.585 8.585 0 0 0 6.078.032 40.129 40.129 0 0 0 9.193 6.623c-.493.041-.187.752-.12 1.862-1.253-.261-2 1.5-2.3 2.756-3.322.573-10.946 2.082-14.2 3.268-3.344 1.217-4.852 2.649-5.958 4.335.65 5.55 1.217 18.531 1.416 24.3 1.577 4.8 3.532 9.459 5.7 15.478.133.369.75.457.839 0 .272-1.406.564-3.284 1-4.706 2.047 3.736 4.17 7.435 6.273 11.143a.447.447 0 0 0 .491.207l.993-.394c.14.683.341 1.353.6 2a1.73 1.73 0 0 0-1.117 1.024 15.22 15.22 0 0 1-1.776 2.984c-2.431 3.053-4.335 3.2-6.012 4.509-1.677 1.309-1.343 3.382-.664 3.366 1.351-.033 2.712-.124 4.062-.185 4.65-.212 4.59.125 6.154-2.331.59-.925 1.177-1.841 1.721-2.788.022 1.415.055 2.82.066 4.236a.414.414 0 0 0 .4.4c1-.058 2-.173 3-.3a.4.4 0 0 0 .294-.393 78.728 78.728 0 0 0-.359-8.7c-.079-.773.009-2.426-.97-2.723-1.052-.32.142 1.045-1.538-2.622a.498.498 0 0 0 .253-.515c-2.137-12.086-3.893-21.67-8.115-32.589.076-.04.14-.1.185-.174 11.032-.138 28.149-1.191 29.638-11.884.365-2.626-.7-7.339-2.3-8.365.555-4.106 1.439-8.148 2.015-12.242a.243.243 0 0 0-.352-.266.249.249 0 0 0-.117.135 67.522 67.522 0 0 0-2.4 12.155c-.251.022-.5.079-.752.109-3.217.383-13.651.216-15.5-.926 0-3.012-1.877-2.016 3.028-.762 2.349.66 4.827.709 7.2.142 2.318-.637 3.766-2.67 5.021-4.6a17.231 17.231 0 0 0 2.941-7.167c.435.076.871.162 1.307.262a.492.492 0 0 0 .588-.338c2.083-5.17 2.124-10.831-1.2-15.216a6.072 6.072 0 0 0 3.747.545.478.478 0 0 0 .146-.86ZM173.009 60.8c-.275-.445-.969-.076-.773.359-.655.7-1.835 2.735-3.431 3.834-1.651 1.137-3.177.742-4-1.6a11.317 11.317 0 0 1-.25-5.3c.215-1.695.515-3.378.9-5.043.151-.019 3.011-2.264 5.664 0 1.534 1.309 1.66 3.428 1.416 5.3-.047.359.206.7.6.6.771-.207 1.174.113 1.132.817-.021.454-.739 1.873-1.258 1.033Zm5.707-3.867a.326.326 0 0 1-.6-.239c.481-1.346.692-2.773.621-4.2a10.39 10.39 0 0 0-1.22-4.193.248.248 0 0 1 .092-.33.246.246 0 0 1 .333.079c1.928 2.85 1.937 6.899.774 8.882v.001Zm-16.7 97.026c-.424.621-.528.843-.788 1.024a1.074 1.074 0 0 1-1.285.077 2.533 2.533 0 0 0-.993-.649 8.135 8.135 0 0 0-.643-2.218c3.195-1.266 2.074-.817 2.637-1.044.669 1.725.688 2.369 1.068 2.809l.004.001Zm6.793-51.628a.38.38 0 0 1 .362.382.38.38 0 0 1-.362.381c-7.861.334-20.534 1.3-24.431 8.136-2.8 4.91-.524 12.164 1.1 17.395 2.018 6.5 3.311 8.7 4.379 11.807.086.25-.285.382-.414.174-1.99-3.2-4.341-10.1-5.392-13.713-1.14-3.912-2.351-8.016-1.764-12.134 1.043-7.324 8.593-10.465 15.858-11.9a38.225 38.225 0 0 1 10.66-.529l.004.001ZM39.189 54.808c.262-.055.229-.424 0-.5-1.449-.487-1.863 1.711-1.535 2.68a2.62 2.62 0 0 0 2.777 1.721c.076.566.15 1.122.207 1.688.021.64.09 1.277.207 1.906.124.478.765.327.817-.109a30.377 30.377 0 0 0-.425-4.117.45.45 0 0 0-.544-.316c-2.333.648-3.133-2.611-1.504-2.953Z"/><path fill="#fff" d="M49.373 49.068c-.141-.362-.91-2.332-1.121-2.668a11.7 11.7 0 0 0 2.113-3.518 3 3 0 0 0-.992-3.42c-1.156-.738-2.648-.287-3.746.348-1.255.726-2.31 1.763-3.606 2.418-1.525.771-3.147.458-4.77.686a3.8 3.8 0 0 0-3.159 2.233c-1.415 3.279.762 6.916 2.865 9.335.207.283.65-.075.468-.371-1.411-2.3-3.3-4.7-2.8-7.6a2.966 2.966 0 0 1 2.342-2.6c1.35-.3 2.766-.022 4.117-.337 2.531-.592 4.22-3.012 6.3-3.464a1.7 1.7 0 0 1 2.157 1.982 4.75 4.75 0 0 1-.708 1.819c-.976 1.67-1.341 2.22-2.963 2.712a36.288 36.288 0 0 1-7.341 1.416c-.272.024-.606.3-.468.621.7 1.6 1.253 3.253.49 4.956-.166.37.293.816.6.468 1.291-1.464.741-3.463.076-5.129 2.225-.235 7.088-1.114 8.55-2.146.394 1.884 2.573 6 2.941 9.476a4.056 4.056 0 0 1-.185 2.32c-.687 1.247-2.743 1.448-4.945 1.927-.459.037-.904.17-1.307.393a.315.315 0 0 0 .076.566 28.987 28.987 0 0 0 4.139-.777c.463.966.607 2.057 1.111 1.768.483-.277-.231-1.355-.635-1.906 2.941-.909 3.822-2.747.401-11.508Z"/><path fill="#fff" d="M42.076 53.752a1.3 1.3 0 0 0 2.026-.371c.153-.337.226-.944-.087-1.209a.299.299 0 0 0-.469.066c-.253.386.164 1.125-.577 1.143-.545.014-.706-.56-1.144-.729-.236-.092-.503.469.251 1.1ZM47.565 51.857c-.25-.015-.448-.314-.642-.436a.253.253 0 0 0-.371.283 1.215 1.215 0 0 0 1.231.861 1.083 1.083 0 0 0 .806-1.275c-.05-.478-.8-.479-.751 0 .022.21.033.584-.273.567ZM44.69 49.94c-.175-.13-.348.108-.272.272.459.99 1.157 1.883 1.71 2.821 1.161 1.972.885 1.726.283 1.764-.316.02-.632.015-.948.033a.392.392 0 1 0 0 .784c.454.02.91.005 1.362-.043.267.017.532-.048.762-.185.5-.439.045-1.276-.185-1.743a10.239 10.239 0 0 0-2.712-3.703ZM52.543 67.53a37.162 37.162 0 0 0-3.268-1.165c0-.011.011-.011.011-.022.177-.335 1.6-3.951 1.71-4.259.143-.413-.532-.707-.718-.3-.531 1.145-.965 2.34-1.427 3.518-.133.337-.2.8-.654.741a3.939 3.939 0 0 1-.806-.316A38.18 38.18 0 0 1 39.56 61.8c-.415-.238-1.68 2.028-2.124 2.723-.382.6.535.416 9.029 6.121.167-.206.353-.396.556-.566-2.854-1.939-5.773-3.791-8.779-5.5.392-.664.782-1.319 1.122-2 .163-.33-.564-.1 3.213 1.895 1.81.91 3.668 1.72 5.566 2.427.1 0 .072-.111-.708 2.876.3-.213.621-.396.958-.545l.556-2.1c3.927 1.164 2.694 1.22 4.422 1.22a55.746 55.746 0 0 0-.8-5.577c-.084-.414-.8-.327-.752.1.196 1.526.474 3.088.724 4.656ZM86.635 165.809c-.291 0-11.647-.157-14.693-.174-1.033-.006-.665.311-1.46-2.015a.399.399 0 0 0-.617-.201.398.398 0 0 0-.145.201c-.189.7-.381 1.394-.567 2.091-1.013-.087-2.015-.174-3.028-.251.939-5.075 1.55-6.149 1.732-8.06a.249.249 0 0 0-.183-.232.244.244 0 0 0-.156.011.243.243 0 0 0-.118.101c-.894 1.788-1.79 6.447-2.168 8.442a.42.42 0 0 0 .392.523c1.273.127 2.538.227 3.813.316a.408.408 0 0 0 .392-.3c.1-.38.2-.751.294-1.132.067.318.177.626.327.915.366.579 1.339.4 1.906.414 1.916.058 14.323.228 14.355.228-.011-.095-.076-.77-.076-.877Z"/><path fill="#fff" d="M75.83 158.914a4.158 4.158 0 0 0-2.063-1.439c.106-.952.4-3.666.507-4.674 2.432.142 5.155.3 7.133.406a.434.434 0 0 0 .425-.425c0-18.68-.315-27.707 1.209-36.183.98 1.405 1.949 2.81 2.93 4.2-.066-5.631-.125-11.393-.131-17.078a1.489 1.489 0 0 1 1.122-1.438c-1.791-3.17-4.766-8.329-8.332-8.638a5.163 5.163 0 0 0-1.863.218c.368-.429.683-.9.937-1.405 1.726-3.382.923-7.218.043-10.892-2.041-8.53-5.216-13.3-10.952-18.864a46 46 0 0 0-3.753-3.317c-1.757-1.347-3.7-2.187-5.815-1.531-1.207.375-5.533 3.1-4.477 3.758.007.032 1.02 4.519 1.514 6.72.42.028.828.143 1.2.338a1.23 1.23 0 0 1 .6 1.6c.107 0 .838.027 1.035.054a10.638 10.638 0 0 1 3.366-.3c.348.02.648 0 .893.3a.236.236 0 0 1 0 .326c-.462.389-.538.021-2.908.2a1.181 1.181 0 0 1 .076 1.764c.05.043.09.094.12.152.183-.183.7-.14 1.013-.152.964-.036 1.016.619 0 .6a2.972 2.972 0 0 1-.85-.065 1.317 1.317 0 0 1-.915 1.513c.059.103.103.213.131.328.437-.121.88-.216 1.329-.284a.374.374 0 0 1 .468.36c-.1 1.634 2.722 2.549 2.309 3.234 1.078-.686 2.2-1.306 3.322-1.938a3.85 3.85 0 0 1-1.187-2.527c-.226-2.053.545-3.2.076-4.041-.641-1.145-2.407-1.093-3.529-1.078a9.054 9.054 0 0 0-2.015.239 4.31 4.31 0 0 1-1.721.316.3.3 0 0 1-.174-.436c.5-.865 2.729-1.079 3.725-1.1 1.253-.026 2.82-.021 3.845.817 1.186.97.827 2.244.675 3.573A4.453 4.453 0 0 0 66.093 76c.152-.087.315-.174.468-.272a.383.383 0 0 1 .4 0 30.59 30.59 0 0 1 7.167 6.143 8.092 8.092 0 0 1 1.688 2.462c.1.294-.273.425-.468.272-1.316-1.035-2.788-4.313-8.605-8.049-1.884 1.067-3.757 2.232-5.729 3.115-.1.033 4.18 9.066 7.657 12.831a5.687 5.687 0 0 0 4.085 2.178c.327.064.239.479 0 .577-1.46.6-3.2-.674-4.215-1.622a31.825 31.825 0 0 1-5.839-8.627 40.647 40.647 0 0 1-2.134-4.978 1.8 1.8 0 0 1 .2-.8c.363-.256.729-.5 1.1-.741-.414.055-.71-.281-1.013-.522a4.1 4.1 0 0 1-1.765-2.451c-1.365.171-.974-.034-1.1.218-.428.854-.875.66-2.058.882.033.1 1.053 6.689 1.481 15.195a67.132 67.132 0 0 0-3.671-3.682c.052-.319.338-4.227.371-6.753 0-.373-.406-.45-.687-.577.051-.1.6-1.424.741-1.841a4.135 4.135 0 0 0-.065-3c.958-.119 1.927-.221 2.886-.37.359-.055.24-.571-.076-.6a15.931 15.931 0 0 0-3.507.164c-.306.04-.587.358-.382.664 1.106 1.644.085 3.369-.468 4.629a61.6 61.6 0 0 0-4.226-1.394c.708-2.969-1.523-5.258-.327-7.015.936-1.373 3.645-1.721 5.294-1.764.614.089 1.24.055 1.84-.1a.345.345 0 0 0 .066-.545 3.149 3.149 0 0 0-1.917-.4c-1.913-.065-4.523.359-5.893 1.743a4.025 4.025 0 0 0-.642 4c.631 2.405.619 2 .533 4.095a.946.946 0 0 0-.218.141c-.158-.2-7.814-10.873-9.53-13.375-2.857-4.167-1.771-2.677-2.242-3.331-.292-.405-.994-.246-1.461-.2-4.734.482-8.663 4.2-8.758 12.057-.114 9.562 1.994 23.815 9.542 29.627a18.588 18.588 0 0 0 6.35 3.289c.128.285.26.572.391.858 2.3-.443 5.512-.543 11.133-.673 7.936-.183 16.95-.953 20.2 6.317a35.294 35.294 0 0 0 5.956-4.073.436.436 0 0 1 .359-.117.44.44 0 0 1 .317.204 44.384 44.384 0 0 1 3.191 4.825c.176.359-.307.807-.588.458a50.254 50.254 0 0 1-3.072-4.422 18.843 18.843 0 0 1-5.943 3.655c1.452 3.775 1 8.7-.047 13.794-.1.49-1.056 4.917-1.678 5.064-.734.177-1.48.3-2.233.369-1.234 6.325-2.546 12.6-2.853 18.377a.446.446 0 0 0 .435.435c.827.061 1.656.1 2.495.142-.055.37-.325 2.461-.414 3.137a11.036 11.036 0 0 0-.207 1.8c-1.169.13 1.28 3.565 3.2 2.211 1.334-.94 1.531-1.965 3.213-.283a9.532 9.532 0 0 0 5.305 3.017c2.191.6 5.659 1.238 6.284 1.394a10.351 10.351 0 0 1-.076-.991c-4.21-.984-8.091-1.323-10.504-3.857ZM36.26 78.128c1.95-6.155 1.884-5.662 1.829-5.762a54.964 54.964 0 0 0-7.189-1.427c-.229-.031-.467-.228-.371-.49a47.696 47.696 0 0 1 3.083-6.96c.153-.271.633-.086.512.218-.879 2.2-1.852 4.335-2.691 6.535 2.135.319 3.2.51 5.446.991 1.088.234 2.249.27 1.983 1.351-.063.255-1.71 5.378-1.743 5.479 2.101 1.2 4.12 2.54 6.045 4.008.187.217.01.656-.3.534a25.526 25.526 0 0 1-3.137-2c-3.262-2.088-3.587-2-3.467-2.477Zm4.6 15.173c-.821 2.435-.889 3.557-1.307 4.4-.141.284-.523.12-.545-.141-.1-1.141.924-4.308 1.318-5.36-.677-.451-1.407-2.229-1.688-2.907a5.3 5.3 0 0 1-.61-3.05c.058-.261.437-.186.447.065.07 1.816 1.907 4.595 2.167 5.087a74.98 74.98 0 0 1 5.609-11.176.354.354 0 1 1 .61.36c-.94 2.177-4.011 6.806-6.005 12.721l.004.001Zm12.373-.316c-.679 3.693-2.115 8.325-4.422 11.273-1.535 1.961-4.066 3.615-6.633 2.734a.244.244 0 0 1-.17-.267.243.243 0 0 1 .235-.212c2.934-.067 5.125-.824 7.276-4.978a32.489 32.489 0 0 0 2.778-8.409c.414-2.2.283-2.375.566-3a.36.36 0 0 1 .653.087 7.518 7.518 0 0 1-.287 2.772h.004Zm19.824 3.191a72.4 72.4 0 0 0-9 4.531c-5.018 3.167-6.6 5.35-7.929 6.187a.314.314 0 0 1-.372-.053.313.313 0 0 1-.053-.372c1.172-1.887 9.385-8.736 17.144-10.783.282-.075.49.362.206.49h.004Zm-.192 61.3c-.723.166-1.073.578-1.976 1.423-.633.316-1.432-.48-1.906-1.014.229-.618.35-1.27.36-1.928.093-.752.359-3.028.4-3.42.894.048 2.221.124 3.71.211a40.309 40.309 0 0 1-.592 4.733l.004-.005Z"/><path fill="#fff" d="M66.017 108.234c-3.764-1.146-8.15-.887-13.528-.763-5.621.13-8.83.23-11.133.673-.131-.286-.263-.573-.391-.858a18.584 18.584 0 0 1-6.35-3.286c-7.57-5.826-9.656-20.124-9.542-29.627.095-7.861 4.024-11.575 8.758-12.057 1.567-.159 1.113-.286 2.737 2.113.094-.3.236-.584.421-.839.452-.764.947-1.503 1.482-2.211a1.152 1.152 0 0 1 1.328-.435c-.023-.349-.023-.512-.141-1.4a3.376 3.376 0 0 1-2.9-4.161 1.11 1.11 0 0 1-.491-.337c-3.123-3.761-4.26-7.342-3.006-10.25a4.679 4.679 0 0 1 3.839-2.742c1.586-.227 3.227.038 4.5-.61 1.173-.6 2.364-1.7 3.561-2.4 4-2.346 7.045.58 6.013 4.085a13.403 13.403 0 0 1-1.9 3.4c1.255 2.851 3.082 7.522 3.159 10.62a3.76 3.76 0 0 1-1.71 3.562 1.32 1.32 0 0 1 1.122.925c.308-.087.636-.06.926.075l-.022-.1c-1.056-.66 3.27-3.383 4.477-3.758 3.552-1.1 6.7 2.071 9.568 4.848a59.204 59.204 0 0 0-1.258-6.634c-1.941-7.695-6.6-18.016-13.811-21.24C39.267 29.26 12.049 39.653 6.448 54.95c-2.963 8.091-.821 20.683 1.46 28.995a136.08 136.08 0 0 0 11.207 27.6c6.194 11.668 13.587 21.817 26.915 22.4-.044 3.474.054 15.368.1 16.893-1.914-.866-3.512-1.512-7.723-3.278a15.028 15.028 0 0 0-2.941-1.035c-1.546-.295-3.441.055-4.269 1.547a2.743 2.743 0 0 0 1.372 3.769 2.69 2.69 0 0 0 3.027-.899 2.68 2.68 0 0 0 .48-1.008c3.061 1.024 6.133 2.037 9.237 2.9a56.932 56.932 0 0 0-8.18 4.847c-1.262 1.048-2.226 2.736-1.525 4.379.563 1.319 2.462 2.6 3.823 1.579 1.008-.759 1.6-2.95.316-3.856a75.165 75.165 0 0 1 7.918-6.36c4.866 1.138 9.666 1.721 13.735 3.5-1.269 2.172-.442 3.757 1.024 4.161 1.8.5 3.282-1.046 3.475-2.734.222-1.949-1.3-3.619-2.941-4.422a24.069 24.069 0 0 0-6.84-1.645 94.591 94.591 0 0 0-5.653-.7 78.108 78.108 0 0 1 6.709-3.812 1.462 1.462 0 0 0 1.59.879c.216-.037.421-.121.6-.248a1.934 1.934 0 0 0-.512-3.191c-1.513-.8-3.2-.031-4.542.752a36.642 36.642 0 0 0-5.218 3.616c.011-2.407-.011-11.328.033-15.489 3.626.18 18.278-.018 22.056-.915.622-.147 1.576-4.574 1.678-5.064 1.826-8.858 1.834-17.236-6.842-19.877Zm-25.22.029c-2.988.66-6.115.188-8.775-1.325-6.912-3.563-11.872-13.553-14.682-20.815a73.138 73.138 0 0 1-4.27-16.578c-.748-5.533-1.147-11.253 1.122-16.49a26.5 26.5 0 0 1 9.672-11.35.232.232 0 0 1 .284.36 55.382 55.382 0 0 0-5.748 5.958 21.711 21.711 0 0 0-4.8 15.009c.489 14.615 6.947 30.6 13.386 38.2 5.88 6.938 10.929 6.016 13.507 6.361a.426.426 0 0 1 .307.67h-.003Z"/></svg>