<svg xmlns="http://www.w3.org/2000/svg" fill="none" viewBox="0 0 200 200"><path fill="#fff" d="M38.974 108.817c-.061-.1-5.5-9.892-9.343-16.484a.927.927 0 0 0-1.181-.533c-7.145 1.332-13.293 2.45-22.551 4.242 2.868 6.811.5 1.742 7.732 17.289.107.269.214.483.59.376 2.739-.537 5.478-.958 8.215-1.5 4.513-.907 15.517-3.122 16.538-3.39ZM75.86 67.313c-.214 0-.538-.376-.59-.645-.333-1.716-6.291-34.146-6.443-34.685-.228-.8.106-1.3.966-1.4 3-.349 46.175-5 48.646-5.262.536-.056.867.051 1.02.644.455 1.766 7.724 32.325 8.322 34.954a1.08 1.08 0 0 1-.186.917 1.073 1.073 0 0 1-.834.425c-2.148.165-50.149 5.105-50.901 5.052Z"/><path fill="#fff" d="M39.886 117.837c-.238-1.664-.837-2.926.645-3.382 1.137-.351 1.127-.323 1.127-2.255a8.69 8.69 0 0 1 1.879-5.853A11.588 11.588 0 0 1 51 101.515c2.448-.516 3.066-.84 9.611-.054 2.3.276 8.666 1.564 11.6 1.611 3.61.058 6.789-1.212 5.689-4.672-1.506-4.763-5.929-6.766-10.685-9.772-2.387-1.51-4.358-2.862-2.631-5.423a8.284 8.284 0 0 1 3.168-2.631c3.506-1.838 3.356-1.611 5.1-1.88 0-.107 0-.322.107-.375.7-.537.475-1.18.322-1.826a10.307 10.307 0 0 1 .161-4.35 1.906 1.906 0 0 1 1.772-1.399c2.313-.18 52.786-5.472 54.93-5.744a5.26 5.26 0 0 1 4.456 1.342c4.822 4.245 13.945 11.335 18.685 15.249a2.417 2.417 0 0 1 .967 2.846c-.227.663-.428 2.943-3.276 3.275-8.645 1.008-44.072 4.548-56 5.96-6.275.742-12.845-3.57-16.913-8.323a25.133 25.133 0 0 1-3.437-4.778c-.107-.322-.81-.274-.966-.43-.376-.591-.859-.376-1.342-.215a13.286 13.286 0 0 0-6.713 3.974c-1.986 2.419 2.111 3.509 7.517 7.141 2.96 1.988 6.189 5.551 6.121 8.966a4.267 4.267 0 0 1-2.416 3.6c-5.677 2.51-15.627-1.629-22.551-1.181-4.3.277-7.869 1.946-10.094 5.8a9.04 9.04 0 0 0-1.289 5.1c0 .43.107.752.644.859 1.021.108 1.192.964 1.4 1.772.284 1.124.271 1.1 1.4.967 15.852-1.852 9.5-1.384 14.658-1.88a3.93 3.93 0 0 1 3.6 2.2c2.372 5.181 10.993 22.259 11.222 25.074a2.438 2.438 0 0 1-1.88 2.792 32.162 32.162 0 0 1-6.282 1.933c-.118.028-21.033 4.411-24.269 4.725-.968.094-4.349.269-5.745-.483-3.336-1.043-5.837-6.978-7.248-10.2-6.18-14.113-6.08-14.5-6.336-17.342a2.658 2.658 0 0 1 2.094-2.9c3.27-.826 6.546-1.522 9.826-2.255 2.097-.47 3.714-.555 3.909-.751Zm-12.94 10.041a.658.658 0 0 0-.465.338.655.655 0 0 0-.018.575c1.673 3.778 8.967 19.007 9.289 19.436.4.4 37.586-6.957 37.692-6.98a.762.762 0 0 0 .526-.407.77.77 0 0 0 .011-.666c-1.772-3.68-8.269-17.558-8.8-18.632a.629.629 0 0 0-.591-.268c-4.19.698-32.06 5.584-37.644 6.604Zm49.129-47.411a24.409 24.409 0 0 0 4.188 5.692c5.164 4.9 11.014 6.64 12.886 6.5 1.717-.131 53.427-5.725 57.183-6.174a2.687 2.687 0 0 0 2.524-2.255 1.842 1.842 0 0 0-.537-1.826c-6.256-5.175-12.526-10.452-18.739-15.678a2.77 2.77 0 0 0-2.362-.752c-3.749.553-50.254 5.506-55.572 6.068-1.833.193-1.356.685-.913 5.154.048.484.322.644.8.644a2.535 2.535 0 0 1 1.45.43c.4.425.695.94.859 1.5.215.43 0 .7-.483.7a5.147 5.147 0 0 1-1.284-.003ZM146.2 43.258c-.483-1.611-.913-3.168-1.45-4.671a24.38 24.38 0 0 1 .483-7.087c.8-.4 1.858 1.889 3.276 3.382 1.124 1.184 1.288 2.685 1.718 4.081.215.7.429 1.342.644 2.04a.201.201 0 0 0 .161-.054c-.107-.7-.537-7.624-.537-10.2 0-1.6 1.209-3.253 2.739-2.524 1.467.7 1.59 2.167 1.825 3.812 1.128-.107 1.269 0 1.5 1.128a9.149 9.149 0 0 1 0 3.544c-.111.442-.255.624-.537.483-.108-1.4-.43-4.242-.484-4.242-.097.37-.168.748-.214 1.128.161 2.523.376 5.047.644 7.57 0 .15.146.921.591.7a108.126 108.126 0 0 1 2.741-11.922c.27-1.051 1.02-2.035 2.094-1.665a1.732 1.732 0 0 1 .752 1.772c0 .107-.054.161-.054.269a1.33 1.33 0 0 1 .859 1.342 82.293 82.293 0 0 1 0 3.651.544.544 0 0 1-.513.5.542.542 0 0 1-.561-.446 7.976 7.976 0 0 0-.161-1.182c-2.821 14.106-.81 7.261 2.577.161a7.543 7.543 0 0 1 1.074-1.449c.413-.615.881-1.19 1.4-1.718a.999.999 0 0 1 .752-.484c.483 0 .544.322.59.806.129 1.34.323 2.631.484 3.973.089.448-.063.641-3.007 7.141-.218.482 0 .744.376.967.435.26.913.537 1.342.751a1.674 1.674 0 0 1 .859 1.88c-.422 2.694-3.961 22.221-4.349 24.644-.947 5.907-9.578 4.792-15.41 3.544-2.929-.626-2.723-2.4-3.436-5.476-.386-1.663-4.79-20.415-5.53-23.088-.689-2.468 4.235-3.197 6.762-3.061Zm20.3 4.027c-8.591 1.826-17.075 1.987-25.451-.966 2.326 11.627 3.42 14.793 6.229 25.5.348 1.329 1.19 1.159 1.664 1.4 6.469.7 8.985 1.5 11.866.161a2.4 2.4 0 0 0 1.557-1.879c3.943-21.101 2.735-16.121 4.129-24.216h.006Zm-20.565-8.967A35.626 35.626 0 0 0 148.077 46c.059.13.152.24.269.322a49.63 49.63 0 0 0 2.953.376c-.162-.649-2.653-8.6-2.685-8.7-.483-1.237-2.899.052-2.685.32h.006Zm20.135-1.557c-.268.054-.538.275-.805.215-.216-.048-.376-.376-.591-.644-1.45 3.382-3.221 6.6-4.51 10.148.966-.108 1.772-.215 2.577-.322.391 0 .439-.236 3.812-8.108.178-.367-.19-.79-.489-1.289h.006Zm-7.785-.751c-.752 3.7-1.4 7.141-2.148 10.738.752-.053 1.235-.107 1.772-.107.89 0 .384.023 2.684-10.041-.811-.214-1.563-.376-2.314-.59h.006Zm-3.222 10.738c-.339-4.742-.572-6.939-.7-9.128-.068-1.18-.215-1.4-1.45-1.288a9.114 9.114 0 0 0-.966.268c.322 3.383.644 6.766.913 10.148h2.203Zm-.966-11.7c-.215-1.664-.42-3.438-.752-5.154-.208-1.075-1.289-.537-1.45-.269a1.711 1.711 0 0 0-.322 1.02c.086 3.606.322 3.946.322 4.886.746-.166 1.39-.331 2.196-.488l.006.005Zm-6.605.913c-1.02-1.557-1.02-1.557-1.718-1.342-.322 2.416-.537 2.04.161 2.04a3.46 3.46 0 0 0 1.551-.703l.006.005Zm18.256-.537c.752-.429.752-.429 1.5.644h.161c-.053-.698-.106-1.396-.161-2.094a7.77 7.77 0 0 0-.859-.268c-1.023 1.122-1.023 1.122-.647 1.713l.006.005ZM11.375 169.651a5.562 5.562 0 0 1-1.557 0 .595.595 0 0 1-.429-.376c-.054-.107.161-.322.268-.483a1.809 1.809 0 0 1 1.45-.537c9.416-1.766 162.344-29.7 179.387-33.021 1.578-.308 2.538 1.222 1.289 1.5-1.109.253-180.308 32.899-180.408 32.917ZM193.984 141.194a.824.824 0 0 1 1.02.376c-.107.59-.59.7-1.073.859-60.9 14.589-175.6 35.652-181.106 35.652 0-2.297 36.303-5.181 181.159-36.887ZM37.953 84.709c-1.5 1.289-5.74.636-7.248-.322a7.07 7.07 0 0 1-3.275-6.175c-.155-5.19 4.251-6.912 7.033-4.564.215.161.43.376.591 0a5.526 5.526 0 0 1 4.4-2.953c5.41-.934 8.154-1.495 16.269.054 2.42.462 3.7 2.523 3.49 5.154a18.566 18.566 0 0 1-4.3 10.309 5.394 5.394 0 0 1-3.536 1.988c-2.469.38-4.974.47-7.464.268-3.05-.254-4.941-2.886-5.96-3.759Zm-2.147-9.557a11.23 11.23 0 0 0 .966 5.637 16.354 16.354 0 0 0 4.457 5.531c.679.619 1.553.98 2.471 1.02 2.926.227 5.869.064 8.752-.483.292-.086.553-.254.752-.484 2.88-2.971 5.211-7.506 5.047-11.758-.093-2.408-2.609-3.139-4.993-3.49-5.316-.784-16.934-1.311-17.452 4.027Zm8.859-3.813c8.759-.9 14.373 1.824 12.081 2.846-4.084 1.821-10.9 2.871-18.685.859-.807-.208-2.152-1.3-.376-2.309 1.232-.702 5.476-1.242 6.98-1.396Zm-10.094 4.242c.066-.33.009-.675-.161-.966a3.063 3.063 0 0 0-5.262.913 6.2 6.2 0 0 0 3.866 8.372c1.42.565 2.988.64 4.456.214-.268-.376-.537-.7-.752-1.02-3.131 1.114-9.182-4.714-5.261-7.463a2.541 2.541 0 0 1 3.114-.05Zm1.879 7.141a11.633 11.633 0 0 1-1.772-5.852 1.546 1.546 0 0 0-2.309-.7c-2.969 1.648.716 6.552 4.081 6.552Zm7.624-9.664c-1.5-.752-4.188-.484-5.047.859 1.718-.317 3.273-.591 5.047-.859Z"/><path fill="#fff" d="M72.478 69.89c.215 2.255-.959.321-1.02-.054-.335-2.047-6.674-35.113-6.927-36.887a5.63 5.63 0 0 1 2.524-5.96 5.103 5.103 0 0 1 1.825-.537c1.393-.233 46.392-4.435 48.324-4.51 6.026-.234 5.467.566 14.228 41.451 0 1.128-.847.749-.966.268-.147-.594-.39-1.177-.537-1.771-7.786-31.48-7.684-35.506-8.376-36.78a3.3 3.3 0 0 0-3.275-1.987c-1.611.11-49.563 4.5-50.364 4.994-1.874 1.147-1.9 2.786-2.148 4.295.054.054 6.175 34.364 6.712 37.478ZM34.141 110.857c-1.23.241-5.8 1.226-6.872 1.45-1.671.349-5.726.945-12.672 2.47a2.099 2.099 0 0 1-1.637-.186 2.085 2.085 0 0 1-.994-1.314C4.654 95.909 4.9 96.426 5.04 95.447c0-.332-.285-.181 19.49-3.973 1.4-.267 2.795-.524 4.188-.859.646-.155.967.215 1.235.7 6.66 11.988 3.934 7.6 8.913 15.678.43.7.761 1.39 1.181 2.041.275.425.053.747-.375.859-.372.095-3.972.659-5.531.964Zm4.833-2.04c-.061-.1-5.5-9.892-9.343-16.484a.927.927 0 0 0-1.181-.533c-7.145 1.332-13.293 2.45-22.551 4.242 2.868 6.811.5 1.742 7.732 17.289.107.269.214.483.59.376 2.739-.537 5.478-.958 8.215-1.5 4.513-.907 15.517-3.122 16.538-3.39ZM8.208 65c-1.155.23-1.706-1.32-.537-1.611 1.5-.18 57.214-5.06 59.008-5.208.751-.062 1.02.053 1.074.59.054.537-.108.806-.7.806C65.042 59.58 8.525 65 8.208 65ZM175.514 93.192c-3.057-.833-1.343-.007-9.235-2.953a24.771 24.771 0 0 1-5.8-3.436 3.517 3.517 0 0 0-1.235-.537 1.796 1.796 0 0 1-1.449-1.178 1.797 1.797 0 0 1 .375-1.83 11.094 11.094 0 0 1 4.672-3.274c3.125-1.317 6.228-.858 9.288.215 4.569 1.6 10.221 3.264 11.6 7.732a4.021 4.021 0 0 1-1.718 4.4c-3.806 2.097-4.826 1.317-6.498.861Zm-13.638-6.174a37.676 37.676 0 0 0 10.9 4.617c-.627-.626.706.166-10.524-4.725-.438-.291-.639-.024-.376.108Zm3.436-6.98c-2.157.5-5.2 1.844-6.443 3.651-.55.8-.324 1.35.645 1.611a54.053 54.053 0 0 1 14.228 5.959c2.464 1.243 4.411 2.294 7.625-.375 1.5-1.244 1.558-2.31.536-3.974a7.764 7.764 0 0 0-3.543-3.167c-2.522-1.078-5.1-2.041-7.732-2.954a14.487 14.487 0 0 0-5.316-.751ZM156.668 106.455c.107-2.041 1.658-2.836 3.436-1.826.1.059 13.819 7.621 24.538 13.8a21.469 21.469 0 0 1 2.523 3.383c.247.374.126.8-.483.8-4.76-.529-.537 1.148-28.618-14.6-.483-.43-1.181-.859-1.396-1.557Zm27.276 12.51-20.244-11.49a1.45 1.45 0 0 0-1.188-.325 1.455 1.455 0 0 0-1.012.701c-.44.528-.427.8.161 1.127 9.262 5.131 20.807 11.866 21.048 11.866.376-.59.752-1.235 1.235-1.879Zm1.718 1.825-.805-1.288c-1.021.429-1.45.966-1.4 1.825.755-.107 1.614.43 2.205-.537Zm-27.6-13.852c.429-.645.805-1.235 1.235-1.88a1.068 1.068 0 0 0-.855-.083 1.072 1.072 0 0 0-.645.567c-.377.644-.216 1.181.267 1.396h-.002Zm2.04 1.288c.537-.7 1.02-1.235 1.5-1.825a1.604 1.604 0 0 0-1.06.311 1.604 1.604 0 0 0-.605.924c.006.164.163.429.163.59h.002Zm-1.074-.537c.484-.8.859-1.4 1.182-2.04-.806.161-1.343.591-1.4 1.289.03.261.104.515.22.751h-.002ZM57.229 85.514c3.262.568 2.333 7.351-9.074 8.054-4.427.273-14.136-1.464-12.457-4.939a2.227 2.227 0 0 1 1.933-1.5.846.846 0 0 1-.376.376 1.64 1.64 0 0 0 .108 2.953c4.834 2.938 14.769 3.256 19.759-.8a2.49 2.49 0 0 0 .429-3.6c-.161-.114-.215-.329-.322-.544ZM169.769 49.809c-.78 0-.929-.66-.376-1.074.911-.982 12.571-1.718 12.672-1.718a1.023 1.023 0 1 1 .161 2.04c-4.135.489-8.294.74-12.457.752ZM134.063 51.634c4.2-.479 4.894-.551 5.477-.215a.611.611 0 0 1 .353.582.603.603 0 0 1-.407.546c-.748.272-1.522.47-2.309.591-1.877.232-3.812.376-5.745.483-.805.107-2.259-1.429 2.631-1.987ZM150.278 100.763c-.375-.483-.8-1.074-1.61-.752-.161.054-1.788.171-2.2-.537-.773-1.32-3.729-2.1-4.886-2.2-10.976-1.176-15.933 1.062-21.369 4.134-1.047.449-.287.221-3.652-.966-6.488-2.433-17.456-1.888-27.92 4.779a10.935 10.935 0 0 0-3.382 3.275c-.678 1.015-1.191.839-2.685 1.5a.996.996 0 0 0-.713.62 1 1 0 0 0 .122.937c.859 1.45 16.43 27.545 17.826 29.961.43.752.752.913 1.557.752 2.954-.645 27.835-5.476 33.344-6.658a8.21 8.21 0 0 1 2.684-.269 7.341 7.341 0 0 0 5.262-1.4 2.813 2.813 0 0 1 1.45-.537c2.523-.322 21.853-3.168 23.839-3.436 5.894-.615 7.926 3.998-17.667-29.203Zm-47.571 38.981c-.4-.4-17.276-28.25-17.343-28.35.469-.469-1-2.45 17.074 27.384.577.961.582.653.269.966Zm8.483-2.685a57.688 57.688 0 0 1 20.994-4.886l-20.994 4.886Zm2.148-1.933c4.671-2.362 9.557-3.865 14.551-3.651a68.085 68.085 0 0 0-14.551 3.651Zm-9.289 4.081A22507.533 22507.533 0 0 0 85.686 109.3c9.162-7.8 21.394-10.769 31.733-7.087a5.8 5.8 0 0 1 3.06 2.47c8.846 13.558 16.694 25.209 17.772 27.007-12.832-3.973-24-.483-34.202 7.517Zm35.491-7.732c-6.282-9.45-12.618-19.007-19.007-28.564 6.019-4.982 18.667-5.543 24.967-3.222.477.12 20.142 25.784 20.564 26.417a28.104 28.104 0 0 0-13.692.483 49.839 49.839 0 0 0-12.832 4.886Zm22.443-4.617c-3.7.537-7.624 1.02-11.49 1.557 5.155-1.396 9.987-1.987 11.49-1.557Zm-16.644 3.973a.321.321 0 0 1-.054-.215c1.235-.322 2.524-.7 3.866-.913 2.706-.411 13.382-2.021 16.161-2.147.364.004.725.059 1.074.161-7.086 1.074-14.067 2.094-21.047 3.114Z"/><path fill="#fff" d="M158.064 106.938c-1.1-.49-.177-2.559 1.181-1.88-.376.642-.805 1.235-1.181 1.88ZM63.565 141.355c-.108.59-.431.87-.967.805-2.531-.307.778 1.15-10.04-5.262-2.821-1.672-14.39-7.907-14.39-10.04.263-.263 3.286.2 3.759.483 23.93 14.454 19.92 11.867 21.638 14.014Zm-11.222-5.477c.271.271 5.263 3.243 8.859 5.369.373.221.537.054.752-.214.215-.323 0-.482-.268-.645-1.01-.613-7.035-4.3-8.967-5.423a7.997 7.997 0 0 1-.376.913ZM131.271 68.011c.982.151.3-.236 15.088 12.51.558.372.149.752-.215.752-2.04.214-50.632 5.749-52.833 6.067a1.88 1.88 0 0 1-1.826-.752c-10.5-12.733-10.836-12.7-10.685-13.155.423-.846 50.353-5.441 50.471-5.422ZM90.68 77.246c-.645.107-1.128.214-1.665.268-.483.108-.054.269.269.269 1.911-.531 2.729.727 4.939 3.49-.751.107-1.342.161-1.933.268-.537.215-.053.161 0 .215.517.057 1.04.057 1.557 0a1.4 1.4 0 0 1 1.45.537c.511.511 1.049.995 1.611 1.449.161.108.322.215.161-.161-.537-.59-1.02-1.181-1.611-1.771a.1.1 0 0 1-.019-.096.1.1 0 0 1 .073-.066c.859-.107 4.51-.59 6.389-.751.271.036.52.17.7.376 1.383 1.383 3.252 3.55 2.685 2.416-.752-.913-1.5-1.879-2.309-2.792.215-.108 1.721-.247 5.853-.7 1.88-.2 2.482-.441 3.06.215.6.686 1.235 1.342 1.826 2.04.268.429.483.215.161-.161-.537-.806-1.128-1.557-1.718-2.416 2.308-.269 4.564-.537 6.872-.806.8 0 1.732 1.763 2.792 2.47l.161-.161c-.59-.752-1.127-1.5-1.718-2.255-.151-.3-.19-.112 6.282-.967.753-.1 1.235-.214 1.772.537.967 1.719 1.4 1.987 1.02 1.021-.161-.269-.537-1.021-.751-1.45a.191.191 0 0 1-.023-.09.19.19 0 0 1 .026-.09.181.181 0 0 1 .158-.088c.859-.108 3.008-.528 4.939-.752 1.773-.206 2.314-.541 2.953.161.487.534 1.021 1.02 1.558 1.557.375.429.536.322.214-.161l-1.5-1.826a.145.145 0 0 1-.053-.08.148.148 0 0 1 .067-.167.151.151 0 0 1 .093-.021l1.826-.483c.429-.108.215-.215-.054-.215-2.511.228-2.311.682-3.651-.913-.588-.7-2.685-2.47-3.007-2.792.173-.1.353-.19.537-.269.376-.107.376-.268-.161-.161a1.73 1.73 0 0 1-.913-.053c-.107-.054-.912-1.02-1.181-1.343-.322-.268-.322-.107-.161.108l.7 1.127c.015.028.023.06.023.09a.19.19 0 0 1-.026.091.181.181 0 0 1-.158.088c-2.255.268-4.457.537-6.658.751-.717 0-1-.485-1.772-1.127-.215-.376-.376-.215-.107.107.268.376.483.752.752 1.128.107.215.053.268-.054.268-1.02.215-3.061.264-4.3.43-3.115.418-3.283.49-4.51-.967a7.174 7.174 0 0 0-.913-.859c-.161-.214-.268-.053-.161.161.484.591 1.074 1.343 1.611 1.987a.097.097 0 0 1 .021.045.106.106 0 0 1-.003.05.103.103 0 0 1-.072.066c-.805.054-4.133.217-5.584.483-1.18.217-1.4.161-2.308-.912a6.995 6.995 0 0 0-.806-.967c-.376-.483-.268-.107-.161.161.376.537.752 1.128 1.128 1.718a.212.212 0 0 1 .018.079.195.195 0 0 1-.059.146.199.199 0 0 1-.067.044c-2.47.376-4.875.76-7.3 1.127-.887.135-.579-.2-1.987-1.61l-.161.161c.323.537.7 1.02 1.128 1.61-2.094.376-4.135.641-6.175 1.074a1.313 1.313 0 0 1-1.557-.7c-1.342-1.664-1.557-1.557-1.342-1.288.358.74.788 1.443 1.284 2.098ZM91.324 90.669c-.1-.1-.956-.755.107-1.02 2.2-.269 57.183-6.551 59.545-6.819.463 0 .786.569.054.751-5.659.731-58.569 6.86-59.706 7.088ZM75.538 73.219c14.691 16.5 15.038 16.035 14.39 16.591-.376.322-.641-.057-.859-.322-2.807-3.42-14.336-15.838-14.336-16.055 0-.161-.004-1.124.805-.214ZM98.733 110.374c-.622.319-1.222.677-1.4.215-.214-.857 4.316-2.828 4.779-3.007a31.167 31.167 0 0 1 13.262-2.094 15.62 15.62 0 0 1 2.309.43c2.317 1.155-8.747-.772-18.95 4.456ZM118.117 109.515c1.288.537.053.7-.162.7-2.61.015-5.207.358-7.731 1.02-.161.054-1.45-.107-.215-.7 4.791-1.535 5.849-1.541 8.108-1.02ZM140.077 120.737c-.644-1.02-1.289-1.987-1.933-2.953a.813.813 0 0 0-.644-.108c-.541.149-1.128.322-1.719.43.323-.752 1.074-.913 1.719-1.343-.484-.805-.913-1.61-1.4-2.469-1.936.7-1.82.664-2.363.483.326-.489-.247-.3 1.987-1.235-.645-1.128-1.235-2.2-1.88-3.329-.429.161-.859.322-1.342.483 0-.751.644-.8.967-1.127-.484-1.02-.967-2.041-1.45-3.115.054-.053.026-.878.859.269 1.4 1.926 1.528 2.47 1.933 2.47 1.772-.376 3.49-.806 5.262-1.235-1.826-3.329-2.094-4.457.644-.537a.753.753 0 0 0 .913.483c1.287-.125 2.577-.161 3.973-.215a5.186 5.186 0 0 1-.429-1.02c-1.4-4.349.751-.322.751-.268.988 2.964 3.381.464 4.4 2.362-.859-.053-1.772-.107-2.846-.161.591.913 1.074 1.718 1.611 2.524.126.251 2.758.019 3.544.8-.913.483-1.826 0-2.846.322.43.7.859 1.4 1.343 2.094.053.108.322.108.536.108.806.053 1.558.053 2.363.107.222.047.438.119.644.215 0 .39.318.082-2.9.59.483.806.913 1.611 1.45 2.363.279.28 1.2.086 3.382.215.211 0 1.2.352.913.644-1.181.107-2.363.215-3.6.322.092.403.218.798.375 1.181 1.4 3.866 1.343 4.027-.7.484-.4-.535-.75-1.45-1.288-1.45-1.4.215-2.739.43-4.188.644.376.913 1.074 2.739 1.288 3.437.484 1.288-.322.107-.375.053-1.362-1.928-1.759-3.114-2.363-3.114-1.611.322-3.168.7-4.779 1.02.484.859.913 1.665 1.343 2.47.376.591-.054.483-.269.161-.322-.376-.7-.7-1.02-1.074-.374-.431-.7-1.127-1.127-1.235-.567-.188-1.183.347-3.007.752.335-.8 1.355-.961 2.268-1.498Zm-3.383-7.571c1.718-.429 3.383-.913 5.047-1.342-.429-.967-.912-1.879-1.4-2.953-1.772.322-3.6.7-5.53 1.074.702 1.127 1.289 2.201 1.883 3.221Zm2.255 4.027c.7 1.074 1.343 2.094 1.987 3.061a.334.334 0 0 0 .376.107c1.557-.43 3.168-.859 4.778-1.342-.536-.913-1.073-1.772-1.61-2.631a.362.362 0 0 0-.376-.161c-1.665.322-3.329.644-5.155.966Zm4.833-1.879c-.43-.752-.913-1.5-1.343-2.255-.192-.385-.965.043-5.315.859.483.859.859 1.5 1.288 2.2.108.108.323.269.484.215 1.61-.321 3.221-.643 4.886-1.019Zm1.664.644c1.373 2.247 1.655 2.9 1.987 2.9 1.4-.215 2.792-.484 4.241-.752-.483-.806-.912-1.557-1.4-2.309-.151-.31-.55-.281-4.828.161Zm-4.134-7.195c1.591 2.917 1.113 2.94 3.007 2.739 1.02-.109 2.04-.215 3.114-.323-.43-.805-.847-1.565-1.289-2.255a.69.69 0 0 0-.483-.322c-1.397.027-2.792.108-4.349.161Zm2.094 3.866c.483.859.913 1.557 1.4 2.255a.551.551 0 0 0 .429.215c1.45-.161 2.846-.376 4.349-.537-1.938-2.901-.413-2.345-6.178-1.933ZM130.627 103.716c-.161-.483.215-.752.591-.859 5.457-2.01 11.043-1.628 12.08-.591.467.467-.048.749-.375.645-3.901-1.242-8.418-.164-12.296.805ZM21.523 93.837a8.672 8.672 0 1 1-8.752 8.7 8.743 8.743 0 0 1 8.752-8.7Zm-1.288 7.356c0-.054-1.772-3.544-2.685-5.423-.859.805-1.611 1.5-2.47 2.255 1.772 1.127 5.101 3.168 5.155 3.168Zm-5.477 5.207c.859.913 1.611 1.664 2.416 2.523 1.128-1.825 3.276-5.315 3.276-5.369-.15.155-3.798 1.9-5.692 2.846Zm-.376-.7c1.987-1.02 5.584-2.9 5.584-2.953-2.04-.108-4.08-.161-6.282-.269.216 1.131.43 2.097.698 3.222Zm13.96.59c.323-1.073.645-2.04.967-3.06-2.2-.107-6.282-.269-6.336-.215 1.772 1.077 3.49 2.151 5.369 3.278v-.003ZM22.329 94.8c-.108 2.2-.269 6.282-.215 6.282 1.074-1.718 2.148-3.436 3.329-5.315-1.074-.319-2.043-.642-3.114-.967Zm-1.235 6.121c.054 0 .268-4.027.376-6.174-1.074.214-2.094.483-3.168.7a486.17 486.17 0 0 0 2.792 5.477v-.003Zm6.765 6.121c-1.772-1.127-5.154-3.168-5.208-3.114a235.243 235.243 0 0 1 2.738 5.262c.859-.69 1.611-1.39 2.47-2.145v-.003Zm-8.215-4.993c0-.054-3.221-2.2-4.993-3.329-.322 1.02-.645 1.986-.967 3.007 2.148.11 4.081.217 5.96.325v-.003Zm9.074-2.578c-1.879.913-3.651 1.772-5.369 2.631 0 .054 3.92.269 6.014.376-.215-1.071-.43-2.037-.645-3.004v-.003Zm-4.08 10.095c-.967-1.826-2.792-5.209-2.792-5.209-.054 1.88-.162 3.813-.215 5.853 1.02-.21 1.933-.427 3.007-.641v-.003ZM26.2 96.307a126.04 126.04 0 0 1-3.168 4.832c.053.054 3.436-1.665 5.262-2.577-.757-.752-1.401-1.504-2.094-2.255Zm-5.531 13.852c.161-1.986.322-5.745.269-5.745-1.02 1.557-1.987 3.168-3.114 4.886 1.015.322 1.876.591 2.84.859h.005ZM163.379 81.487c.806 0 1.558-.053 2.309 0 .43.054 1.5 1.29 1.826 1.557-.7-.107-2.255-.375-2.363-.429-.537-.322-1.074-.698-1.772-1.128Z"/><path fill="#fff" d="M111.029 79.34c-.966.107-1.771.221-2.577.322-1.824.23-3.651.376-5.477.59-.215 0-.537 0-.644-.16-.967-1.128-1.933-2.309-3.007-3.6 1.128-.162 6.019-.829 7.41-1.075a1.25 1.25 0 0 1 1.342.483c.852 1.083 1.879 2.205 2.953 3.44ZM135.137 76.172a.151.151 0 0 1 .048.174.15.15 0 0 1-.155.094c-.729.086-3.749.556-6.873.806-.883 0-.258.074-3.758-3.6a.151.151 0 0 1-.048-.174.15.15 0 0 1 .155-.094c6.8-.938 6.8-1.143 7.034-.913 1.235 1.235 2.402 2.485 3.597 3.707ZM115.969 74.346c2.479-.31 5.678-.608 6.926-.805a1.401 1.401 0 0 1 1.342.483c.935 1.11 1.933 2.2 2.954 3.383-1.53.218-1.305.146-7.249.859a1.277 1.277 0 0 1-.644-.161c-1.128-1.128-2.2-2.309-3.329-3.49v-.269ZM118.815 78.427c-1.826.215-3.6.32-5.37.7a2.809 2.809 0 0 1-3.221-1.4 28.714 28.714 0 0 0-1.88-2.255.216.216 0 0 1-.039-.091.219.219 0 0 1 .008-.099.206.206 0 0 1 .139-.132c6.546-.7 5.609-.638 6.336-.7.322 0 .484.213.7.429a35.283 35.283 0 0 1 3.327 3.548ZM91.915 77.622c1.825-.269 2.848-.461 5.047-.752 1.29-.171 1.823-.674 2.469.429 1.047 1.788 1.614 1.857 2.417 3.061-3.118.346-4.554.587-6.443.752-.82 0-.9-.338-3.544-3.276a.115.115 0 0 1 .054-.214Z"/></svg>